# xmcd
#
# Track frame offsets: 
#        150
#        13916
#        28704
#        44016
#        56779
#        77732
#        92098
#        106350
#        112139
#        131612
#        145850
#        166489
#        183787
#        203369
#
# Disc length: 2952 seconds
#
# Revision: 2
# Processed by: cddbd v1.5.2PL0 Copyright (c) Steve Scherf et al.
# Submitted via: ExactAudioCopyFreeDBPlugin 1.0
#
DISCID=c10b860e
DTITLE=Blackberry Smoke - Holding All the Roses
DYEAR=2015
DGENRE=Country
TTITLE0=Let Me Help You (Find the Door)
TTITLE1=Holding All the Roses
TTITLE2=Living in the Song
TTITLE3=Rock and Roll Again
TTITLE4=Woman in the Moon
TTITLE5=Too High
TTITLE6=Wish in One Hand
TTITLE7=Randolph County Farewell
TTITLE8=Payback's a Bitch
TTITLE9=Lay It All on Me
TTITLE10=No Way Back to Eden
TTITLE11=Fire in the Hole
TTITLE12=Pearls
TTITLE13=Aint Got the Blues (Live Acoustic)
EXTD=
EXTT0=
EXTT1=
EXTT2=
EXTT3=
EXTT4=
EXTT5=
EXTT6=
EXTT7=
EXTT8=
EXTT9=
EXTT10=
EXTT11=
EXTT12=
EXTT13=
PLAYORDER=
